<svg xmlns="http://www.w3.org/2000/svg" viewBox="0 0 200 48" role="img" aria-label="Daviplata">
  <rect x="2" y="6" width="36" height="36" rx="8" fill="#E31837"/>
  <path d="M12 30V18h6.5c3.8 0 6.2 2.2 6.2 6s-2.4 6-6.2 6H12zm5.5-4.5h1c1.8 0 2.8-.9 2.8-2.3S20.3 21 18.5 21h-1v4.5z" fill="#fff"/>
  <path d="M48 14h5.5l7.5 12V14H66v16h-5.2L53 18v12h-5V14z" fill="#E31837"/>
  <path d="M72 14h5.5l3.5 9 3.5-9H90l-6.5 16h-5L72 14z" fill="#E31837"/>
  <path d="M96 14h14.5c4.8 0 7.8 2.8 7.8 7.2S115.3 28.5 110.5 28.5H102v1.5h-6V14zm8.5 9h5c2 0 3.2-1 3.2-2.5s-1.2-2.5-3.2-2.5h-5v5z" fill="#E31837"/>
  <path d="M124 14h6v16h-6V14z" fill="#E31837"/>
  <path d="M134 14h14c4.5 0 7.2 2.5 7.2 6.5 0 3.2-1.8 5.5-4.8 6.3L150 30h-6l-1.5-3h-5.5l-1.5 3h-6l5.5-16zm11 9.5h-4.5l2.2-5.5 2.3 5.5z" fill="#E31837"/>
  <path d="M158 14h6v16h-6V14z" fill="#E31837"/>
  <path d="M168 14h6v11.5h9v4.5h-15V14z" fill="#E31837"/>
</svg>
