<svg xmlns="http://www.w3.org/2000/svg" viewBox="0 0 200 48" role="img" aria-label="Davivienda">
  <g fill="#ED1C24">
    <path d="M8 10c0-2 1.5-3.5 3.5-3.5h8c6 0 10 4 10 9.5S25.5 26 19.5 26H14v12H8V10zm6 10h5.5c2.8 0 4.5-1.6 4.5-4s-1.7-4-4.5-4H14v8z"/>
    <path d="M36 10h6v22h-6V10z"/>
    <path d="M48 10h5.5l9.5 15.5V10H69v22h-5.5L54 16.5V32h-6V10z"/>
    <path d="M76 10h14c5.5 0 9 3.2 9 8.3 0 3.5-1.8 6-4.8 7.2L92 32h-6l-2-4.5H81V32h-6V10zm8.5 11h5.5c2 0 3.2-1 3.2-2.7S92 15.5 90 15.5h-5.5V21z"/>
    <path d="M106 10h6v22h-6V10z"/>
    <path d="M118 10h5.5l10 22h-6l-1.5-3.5h-8.5L116 32h-6l8-22zm4 13.5-2.8-6.5-2.7 6.5h5.5z"/>
    <path d="M138 10h14c5 0 8.2 2.8 8.2 7.5 0 4-2.5 6.8-6.5 7.5L154 32h-6.5l-1.8-4h-5l-1.8 4h-6.5L138 10zm12 10.5h-4.5l2.2-5 2.3 5z"/>
    <path d="M166 10h6v22h-6V10z"/>
    <path d="M176 10h6v16h10v6h-16V10z"/>
  </g>
</svg>
