<svg xmlns="http://www.w3.org/2000/svg" viewBox="30 40 118 68" role="img" aria-label="PSE">
  <g fill="#1B3F8B" fill-rule="evenodd" clip-rule="evenodd">
    <path d="M42.772 103.508h15.385l22.507-22.793-7.692-7.692-30.2 30.485zM63.285 103.508h16.239L91.49 91.257l-7.977-7.977-20.228 20.228zM123.115 103.508l-45.87-45.87c-25.072-25.641 9.971-60.114 34.473-35.897 2.279 2.849 12.82 18.519-.285 33.049-1.141.854-5.982 4.843-5.982 4.843l7.406 7.408s4.559-3.989 5.984-5.413c19.658-20.228 4.273-43.305.854-47.009-35.042-34.758-84.9 14.815-49.003 50.998l37.323 37.892h15.1v-.001z"/>
    <path d="M143.344 103.508L86.647 46.812c-7.123-7.123-2.564-21.368 9.972-18.519 8.547 2.849 11.112 16.524-1.709 20.798l7.407 7.692c17.664-9.687 13.961-33.049-3.418-38.747-24.502-5.698-33.619 23.077-19.944 37.037l48.719 48.434h15.67v-.001z"/>
  </g>
</svg>
