<svg width="390" height="844" viewBox="0 0 390 844" fill="none" xmlns="http://www.w3.org/2000/svg">
  <rect width="390" height="844" rx="38" fill="#071819"/>
  <circle cx="320" cy="40" r="120" fill="#9BE117" opacity=".16"/>
  <circle cx="56" cy="130" r="88" fill="#2AE877" opacity=".09"/>
  <rect x="22" y="24" width="346" height="796" rx="30" fill="#0B2222"/>
  <rect x="44" y="52" width="302" height="64" rx="20" fill="#102F2E"/>
  <circle cx="77" cy="84" r="18" fill="#A7E613"/>
  <text x="107" y="78" fill="#F5FAF7" font-family="Arial, Helvetica, sans-serif" font-size="18" font-weight="900">TratoYa</text>
  <text x="107" y="99" fill="#A6B9B6" font-family="Arial, Helvetica, sans-serif" font-size="12" font-weight="700">Panel movil</text>
  <rect x="52" y="146" width="286" height="142" rx="26" fill="url(#hero)"/>
  <text x="78" y="184" fill="#062019" font-family="Arial, Helvetica, sans-serif" font-size="15" font-weight="800">Saldo protegido</text>
  <text x="78" y="230" fill="#062019" font-family="Arial, Helvetica, sans-serif" font-size="42" font-weight="900">$1.250.000</text>
  <rect x="78" y="248" width="134" height="18" rx="9" fill="#063027" opacity=".2"/>
  <path d="M281 182l18 18 34-39" stroke="#0C3B22" stroke-width="11" stroke-linecap="round" stroke-linejoin="round" opacity=".75"/>
  <rect x="52" y="314" width="132" height="112" rx="22" fill="#F8FBF9"/>
  <rect x="206" y="314" width="132" height="112" rx="22" fill="#F8FBF9"/>
  <text x="74" y="350" fill="#17312E" font-family="Arial, Helvetica, sans-serif" font-size="13" font-weight="800">Tratos activos</text>
  <text x="74" y="390" fill="#0B1F1F" font-family="Arial, Helvetica, sans-serif" font-size="34" font-weight="900">08</text>
  <text x="228" y="350" fill="#17312E" font-family="Arial, Helvetica, sans-serif" font-size="13" font-weight="800">Por confirmar</text>
  <text x="228" y="390" fill="#0B1F1F" font-family="Arial, Helvetica, sans-serif" font-size="34" font-weight="900">03</text>
  <rect x="52" y="456" width="286" height="60" rx="22" fill="url(#cta)"/>
  <circle cx="94" cy="486" r="16" fill="#08201B" fill-opacity=".16"/>
  <path d="M94 477V495M85 486H103" stroke="#08201B" stroke-width="3.2" stroke-linecap="round"/>
  <text x="122" y="491" fill="#08201B" font-family="Arial, Helvetica, sans-serif" font-size="16" font-weight="900">Crear trato seguro</text>
  <text x="52" y="558" fill="#EFF8F4" font-family="Arial, Helvetica, sans-serif" font-size="18" font-weight="900">Actividad reciente</text>
  <g>
    <rect x="52" y="584" width="286" height="70" rx="20" fill="#123532"/>
    <circle cx="84" cy="619" r="17" fill="#9BE117"/>
    <text x="116" y="613" fill="#F7FAF8" font-family="Arial, Helvetica, sans-serif" font-size="14" font-weight="800">Entrega confirmada</text>
    <text x="116" y="635" fill="#93AAA5" font-family="Arial, Helvetica, sans-serif" font-size="12">$350.000 liberados</text>
  </g>
  <g>
    <rect x="52" y="668" width="286" height="70" rx="20" fill="#123532"/>
    <circle cx="84" cy="703" r="17" fill="#39C64A"/>
    <text x="116" y="697" fill="#F7FAF8" font-family="Arial, Helvetica, sans-serif" font-size="14" font-weight="800">Pago protegido</text>
    <text x="116" y="719" fill="#93AAA5" font-family="Arial, Helvetica, sans-serif" font-size="12">Esperando entrega</text>
  </g>
  <rect x="86" y="770" width="218" height="28" rx="14" fill="#D9FF33" opacity=".2"/>
  <defs>
    <linearGradient id="hero" x1="52" y1="146" x2="338" y2="288" gradientUnits="userSpaceOnUse">
      <stop stop-color="#D9FF33"/>
      <stop offset=".55" stop-color="#88D316"/>
      <stop offset="1" stop-color="#1E842D"/>
    </linearGradient>
    <linearGradient id="cta" x1="52" y1="456" x2="338" y2="516" gradientUnits="userSpaceOnUse">
      <stop stop-color="#E8FF61"/>
      <stop offset=".62" stop-color="#9BE117"/>
      <stop offset="1" stop-color="#4BA51C"/>
    </linearGradient>
  </defs>
</svg>
