<svg width="330" height="260" viewBox="0 0 330 260" fill="none" xmlns="http://www.w3.org/2000/svg"><defs><linearGradient id="p" x1="47" y1="20" x2="280" y2="240"><stop stop-color="#ECF8EA"/><stop offset="1" stop-color="#D8EBDD"/></linearGradient><filter id="f"><feDropShadow dx="0" dy="14" stdDeviation="14" flood-opacity=".15"/></filter></defs><rect width="330" height="260" rx="28" fill="url(#p)"/><ellipse cx="112" cy="215" rx="86" ry="23" fill="#24413B" opacity=".08"/><g filter="url(#f)"><circle cx="104" cy="74" r="34" fill="#F2C6A2"/><path d="M65 76c4-42 53-57 78-22 8 12 3 31-4 43-7-13-13-22-31-25-16-2-26 5-43 4Z" fill="#20312C"/><path d="M72 114c20 26 54 26 76 1 23 16 41 50 43 94H30c4-44 21-79 42-95Z" fill="#0F583D"/><path d="M145 115c25 15 44 47 50 88h-48l-29-82c9-1 19-3 27-6Z" fill="#224D43"/><path d="M96 142h52" stroke="#fff" stroke-opacity=".23" stroke-width="4" stroke-linecap="round"/></g><rect x="207" y="72" width="78" height="125" rx="18" fill="#0D2926"/><rect x="217" y="87" width="58" height="92" rx="10" fill="#122F2B"/><rect x="228" y="139" width="36" height="10" rx="5" fill="#83D51D"/><circle cx="246" cy="191" r="5" fill="#84D51D"/><path d="M254 62h61v61h-61z" fill="#7BD11E" rx="14"/><path d="M269 93l11 11 22-26" stroke="#fff" stroke-width="7" stroke-linecap="round" stroke-linejoin="round"/></svg>
