<svg width="188" height="56" viewBox="0 0 188 56" fill="none" xmlns="http://www.w3.org/2000/svg">
  <rect x="0.5" y="0.5" width="187" height="55" rx="10.5" fill="#050505" stroke="#FFFFFF" stroke-opacity=".34"/>
  <path d="M38.4 27.9c0-4.6 3.8-6.8 4-6.9-2.1-3.1-5.4-3.5-6.6-3.6-2.8-.3-5.4 1.6-6.8 1.6-1.4 0-3.6-1.6-5.9-1.5-3 .1-5.8 1.7-7.3 4.4-3.1 5.4-.8 13.4 2.3 17.8 1.5 2.2 3.3 4.6 5.7 4.5 2.3-.1 3.1-1.5 5.9-1.5s3.5 1.5 5.9 1.4c2.4 0 4-2.2 5.5-4.4 1.7-2.5 2.4-5 2.5-5.1-.1-.1-4.7-1.9-5.2-6.7z" fill="#fff"/>
  <path d="M34 14.6c1.2-1.5 2-3.5 1.8-5.6-1.8.1-4 1.2-5.3 2.7-1.2 1.4-2.2 3.5-1.9 5.5 2 .2 4.1-1 5.4-2.6z" fill="#fff"/>
  <text x="119" y="21" text-anchor="middle" fill="#f7faf9" font-family="Arial, Helvetica, sans-serif" font-size="8.5" font-weight="700" letter-spacing=".7">PROXIMAMENTE EN</text>
  <text x="119" y="41" text-anchor="middle" fill="#ffffff" font-family="Arial, Helvetica, sans-serif" font-size="20" font-weight="900">App Store</text>
</svg>
